<svg id="Layer_1" data-name="Layer 1" xmlns="http://www.w3.org/2000/svg" xmlns:xlink="http://www.w3.org/1999/xlink" viewBox="0 0 2600 2189"><defs><style>.cls-1{fill:none;}.cls-2{opacity:0.6;}.cls-3{clip-path:url(#clip-path);}.cls-4{fill:#d2d3d4;}</style><clipPath id="clip-path"><rect id="SVGID" class="cls-1" x="1253" y="553.1" width="773.9" height="1080.42"/></clipPath></defs><title>LoginBG_2600x2189</title><rect width="2600" height="2189"/><g class="cls-2"><g class="cls-3"><path class="cls-4" d="M1738.81,1064.92c0,.78,0,1.58-.06,2.38,0,1.61-.06,3.27-.23,5a120.83,120.83,0,0,1-2.2,16.26,118.93,118.93,0,0,1-14.33,36.66A118.89,118.89,0,0,1,1588.37,1179a119,119,0,0,1-86.95-103.14,122.45,122.45,0,0,1,.51-27.47,117.77,117.77,0,0,1,17.89-48.56,118.93,118.93,0,0,1,67.9-50.14c2-.62,4.11-1.09,6.12-1.54l2.11-.48,2.47-.44c1.85-.35,3.6-.67,5.35-.86l3.66-.46,3.69-.29c2.12-.2,4.17-.25,6.17-.29l88.7,0V950h0v.72l-88.2,0h-.54c-1.86,0-3.79.09-5.8.28l-3.45.27-3.39.43c-1.69.18-3.4.49-5,.8l-2.41.43-.19,0-2.12.48c-1.86.42-3.79.85-5.68,1.44a113.52,113.52,0,0,0-81.81,94.16,117,117,0,0,0-.49,26.19,113.61,113.61,0,0,0,83,98.4,113.33,113.33,0,0,0,97.79-18.39,112.55,112.55,0,0,0,12.4-10.74,114.91,114.91,0,0,0,17.29-22.12,112.48,112.48,0,0,0,15.77-50.43c.16-1.67.19-3.26.22-4.79,0-.74,0-1.46,0-2.27l0-29.43h0V978.09h5.47v61.33h0v25.5Zm-32.82-.24c0,.67,0,1.35-.06,2,0,1.08,0,2.19-.16,3.42a85,85,0,0,1-11.94,38.25,86.23,86.23,0,0,1-56.74,40.27,87,87,0,0,1-40.06-1.35,86.15,86.15,0,0,1-62.94-74.64,89.44,89.44,0,0,1,.37-20,85.26,85.26,0,0,1,12.94-35.11,86.22,86.22,0,0,1,49.2-36.34c1.29-.4,2.64-.7,3.94-1,.67-.14,1.32-.29,2-.45l2.16-.38c1.2-.23,2.33-.44,3.49-.55l5.37-.55c1.38-.14,2.75-.17,4.07-.2l88.39,0v61.32h0v25.26Zm3.55,18.3a90.12,90.12,0,0,0,1.68-12.41c.14-1.31.16-2.55.18-3.75,0-.64,0-1.26,0-2l0-29.29h0V978.1h5.47v61.33h0l0,25.34c0,.71,0,1.44-.05,2.17,0,1.25,0,2.55-.18,4a98.28,98.28,0,0,1-1.8,13.25,97,97,0,0,1-11.68,29.89,97,97,0,0,1-109.06,43.86,97.06,97.06,0,0,1-71-84.15,100.46,100.46,0,0,1,.42-22.47,95.88,95.88,0,0,1,14.59-39.59,97.16,97.16,0,0,1,55.43-40.94c1.53-.47,3.11-.83,4.64-1.17l2-.47,2.3-.41c1.4-.26,2.73-.51,4.08-.64l3-.38,3-.24c1.62-.16,3.21-.2,4.74-.23l88.53,0v5.46l-87.82,0-.69,0c-1.43,0-2.91.06-4.43.22l-2.81.22-2.69.34c-1.31.13-2.62.37-3.88.61l-2.13.38-.23,0-2,.46c-1.42.31-2.87.64-4.28,1.08a91,91,0,0,0-27.39,12.9,91.9,91.9,0,0,0-24.87,25.72A90.41,90.41,0,0,0,1529,1052a94.37,94.37,0,0,0-.4,21.19,91.54,91.54,0,0,0,155.9,55.9,92.9,92.9,0,0,0,14-17.87,91.42,91.42,0,0,0,11-28.24m1.92-115.82h5.47v5.47h-5.47v-5.46Zm0-10.95h5.47v5.47h-5.47v-5.47Zm0-10.94h5.47v5.47h-5.47v-5.47Zm8.79,140a102.54,102.54,0,0,0,1.89-13.92c.15-1.5.18-2.91.2-4.28,0-.69,0-1.36.05-2.13l0-29.36h0V978.09h5.47v61.33h0v25.42c0,.75,0,1.52-.06,2.29,0,1.43,0,2.9-.21,4.47a108,108,0,0,1-136.34,96.83,108,108,0,0,1-79-93.64,111.44,111.44,0,0,1,.46-25,106.91,106.91,0,0,1,16.24-44.08,108.07,108.07,0,0,1,61.67-45.54c1.77-.54,3.6-1,5.36-1.35l2.1-.48,2.41-.43c1.62-.3,3.15-.58,4.68-.74l1.88-.24,4.81-.45c1.87-.18,3.69-.22,5.45-.26l88.62,0v5.46l-88,0-.64,0c-1.64,0-3.33.08-5.09.25l-2.26.17-3.91.46c-1.5.15-3,.43-4.46.7l-2.28.41-.2,0-2.05.47c-1.64.37-3.33.75-5,1.26a102.06,102.06,0,0,0-30.68,14.44,103.23,103.23,0,0,0-27.83,28.78,101.48,101.48,0,0,0-15.41,41.85,105.45,105.45,0,0,0-.45,23.7,102.58,102.58,0,0,0,202.5,11m2.15-118.07h5.47v5.47h-5.47v-5.47Zm0-10.94h5.47v5.47h-5.47v-5.47Zm0-10.94h5.47v.61h0v4.86h-5.47v-5.47Zm10.94,21.88h5.47v5.46h-5.47v-5.46Zm0-10.94h5.47v5.42h0v0h-5.47v-5.46Zm0-10.33h0v-.61h5.46v5.47h-5.46v-4.85Zm-474.87,687.64,0-145.64.59-11.63c.41-3.07.9-6.21,1.38-9.25a51.69,51.69,0,0,1,1.45-6.81c.19-.77.39-1.54.58-2.31l1.21-4.59c.24-.9.58-1.82.93-2.79q.3-.78.57-1.56l2-5.58a29,29,0,0,1,1.24-3c1.39-2.93,2.76-5.77,4.15-8.59a123.68,123.68,0,0,1,10-15.54,120,120,0,0,1,55.45-40.92,88.73,88.73,0,0,1,11.9-3.57c1.11-.28,2.2-.55,3.29-.84a24.06,24.06,0,0,1,2.76-.54l4.48-.71c.76-.1,1.58-.22,2.39-.35,1.61-.25,3.13-.49,4.61-.58l13-.55h189.66v.11h329.24c1.46,0,2.88,0,4.26-.12l6.06-.3a31,31,0,0,0,3.69-.46c.61-.1,1.23-.21,1.85-.29l3.42-.51a15.94,15.94,0,0,0,2.54-.52c1-.27,2-.53,3.07-.79a57.27,57.27,0,0,0,8.33-2.55,92.75,92.75,0,0,0,42.79-31.56,83.89,83.89,0,0,0,6.81-10.38l.91-1.56a2.12,2.12,0,0,0,.11-.21l3-6.31a19,19,0,0,0,1.08-2.62c.11-.29.21-.57.31-.85l1.22-3.33c.15-.42.29-.79.42-1.14a19.53,19.53,0,0,0,.82-2.45l.87-3.39c.16-.68.33-1.31.5-1.94a67.45,67.45,0,0,0,1.1-7.38l1-6.77a2.45,2.45,0,0,0,0-.27l.35-6.94c.13-1.64.12-3.47.12-5.24,0-.69,0-1.38,0-2.05v-12.78h0V1231h0V1070.44c0-.67,0-1.36,0-2,0-1.77,0-3.6-.12-5.23l-.35-6.94a2.46,2.46,0,0,0,0-.28l-1-6.77a34.75,34.75,0,0,0-1.1-5.3c-.17-.63-.34-1.26-.5-1.93l-.87-3.4a19.93,19.93,0,0,0-.82-2.44c-.13-.36-.27-.72-.42-1.14l-1.22-3.33c-.1-.28-.2-.57-.31-.85a18.53,18.53,0,0,0-1.08-2.62l-3-6.31a2.12,2.12,0,0,0-.11-.21l-.91-1.56a83.89,83.89,0,0,0-6.81-10.38,92.68,92.68,0,0,0-42.79-31.57,58.46,58.46,0,0,0-8.33-2.54c-1.06-.26-2.11-.53-3.07-.79a15.94,15.94,0,0,0-2.54-.52l-3.42-.52c-.62-.08-1.24-.18-1.85-.28a31,31,0,0,0-3.69-.46l-6.06-.3c-1.38-.08-2.8-.15-4.26-.12H1744.28v-5.47h155.23c1.33,0,2.83,0,4.43.12l6.56.34a31.63,31.63,0,0,1,3.55.45c.73.12,1.46.24,2.14.32l3.75.58a15.59,15.59,0,0,1,2.12.42c1.1.3,2.21.58,3.34.86a63,63,0,0,1,8.95,2.71l.18.06a99.39,99.39,0,0,1,52.93,45.13l.6,1,3.42,7.08a18.48,18.48,0,0,1,1,2.31c.12.35.25.69.37,1l1.33,3.64c.16.47.33.93.51,1.39.28.75.54,1.46.72,2.14l1,3.77c.17.72.36,1.43.54,2.15a35.5,35.5,0,0,1,1.12,5.28l1.14,7.62.4,7.69c.12,1.77.11,3.4.1,5.12,0,.71,0,1.42,0,2.12v197.84c0,.7,0,1.41,0,2.13,0,1.72,0,3.34-.1,5.12l-.4,7.68-1.14,7.62a67,67,0,0,1-1.12,7.37c-.18.71-.37,1.43-.54,2.15l-1,3.77c-.18.68-.44,1.39-.72,2.14-.18.46-.35.92-.51,1.39l-1.33,3.64c-.12.3-.25.65-.37,1a17.87,17.87,0,0,1-1,2.31l-3.42,7.09-.6,1a98.52,98.52,0,0,1-52.93,45.14l-.18.06a63,63,0,0,1-8.95,2.71c-1.13.28-2.24.56-3.34.86a15.59,15.59,0,0,1-2.12.42l-3.75.57c-.68.09-1.41.21-2.14.33a31.52,31.52,0,0,1-3.55.44l-6.56.34c-1.6.08-3.1.16-4.43.13h10.79v-.11H1380.55c-1.48,0-3.47.06-5.39.16l-6.93.36a44,44,0,0,0-4.68.57q-1.07.18-2.16.33l-4.2.65a24.78,24.78,0,0,0-3,.61c-1,.27-2.11.55-3.22.82a80.93,80.93,0,0,0-11,3.32,114.54,114.54,0,0,0-52.89,39,115.08,115.08,0,0,0-9.26,14.29l-.29.52a1.62,1.62,0,0,0-.1.18l-3.79,7.86a27.69,27.69,0,0,0-1.35,3.24l-.37,1-1.52,4.14c-.18.5-.34,1-.51,1.4-.35.94-.71,1.92-1,3l-1.1,4.24c-.19.76-.37,1.47-.56,2.18a48.13,48.13,0,0,0-1.41,6.7l-.2,1.23c-.37,2.44-.75,4.87-1.08,7.31,0,.07,0,.15,0,.22l-.45,8.6c-.13,2.22-.13,4-.12,5.7,0,.69,0,1.38,0,2.11v140.16h5.47V1493.38q0-1.08,0-2.16c0-1.7,0-3.3.12-5.35l.44-8.52c.32-2.37.68-4.73,1-7.1l.21-1.33a45,45,0,0,1,1.28-6.05c.19-.74.39-1.48.57-2.22l1.09-4.19c.21-.79.51-1.6.83-2.46.18-.49.36-1,.53-1.48l1.49-4c.12-.32.26-.69.39-1.06a22.64,22.64,0,0,1,1.1-2.66l4-8.26a111,111,0,0,1,8.84-13.68,109.15,109.15,0,0,1,50.41-37.21l.15,0a75.26,75.26,0,0,1,10.32-3.11c1.13-.28,2.25-.56,3.35-.86a23,23,0,0,1,2.42-.48l4.13-.64c.72-.09,1.49-.21,2.26-.34a39.68,39.68,0,0,1,4.09-.51l6.91-.36c1.83-.09,3.72-.18,5.07-.15h189.72v.11h329.24c1.47,0,3.14,0,4.77-.14l6.55-.33a39.08,39.08,0,0,0,4.16-.51c.67-.11,1.35-.22,2-.31l3.79-.58a20.91,20.91,0,0,0,2.81-.57c1-.27,2.07-.54,3.16-.81a68.53,68.53,0,0,0,9.64-2.93,104.62,104.62,0,0,0,55.82-47.53l.66-1.12a1.86,1.86,0,0,0,.1-.2l3.42-7.08a22.59,22.59,0,0,0,1.21-2.93c.12-.31.23-.63.35-.94l1.37-3.73c.16-.48.31-.88.47-1.29a24.23,24.23,0,0,0,.89-2.69l1-3.82c.18-.72.36-1.4.53-2.08a72.54,72.54,0,0,0,1.26-8.06l1.14-7.64a1.15,1.15,0,0,0,0-.26l.4-7.78c.13-1.92.12-3.73.12-5.47q0-1,0-2.07v10.74h0v-71.6h0v-137c0-.7,0-1.39,0-2.08,0-1.74,0-3.54-.12-5.47l-.4-7.77,0-.27-1.14-7.64a39.41,39.41,0,0,0-1.26-6c-.17-.68-.35-1.36-.53-2.09l-1-3.81a24.23,24.23,0,0,0-.89-2.69c-.16-.41-.31-.82-.47-1.29l-1.37-3.74-.35-.93a22,22,0,0,0-1.21-2.93l-3.42-7.09a1.74,1.74,0,0,0-.1-.19l-.66-1.12a98.49,98.49,0,0,0-8-12.25,103.49,103.49,0,0,0-47.84-35.28,67.23,67.23,0,0,0-9.64-2.93c-1.09-.27-2.17-.54-3.16-.81a19.46,19.46,0,0,0-2.81-.57L1917,963c-.68-.09-1.36-.2-2-.31a36.66,36.66,0,0,0-4.16-.51l-6.55-.34c-1.63-.08-3.3-.17-4.77-.13H1744.28V956.2h155.23c1.35,0,3.24.06,5.06.15l6.92.36a37.11,37.11,0,0,1,4.09.51l2.26.34,4.13.64a18.84,18.84,0,0,1,2.42.48c1.1.29,2.22.57,3.35.85a76.68,76.68,0,0,1,10.32,3.11l.15.06a109,109,0,0,1,50.41,37.2,111.78,111.78,0,0,1,8.84,13.68l4,8.27a22,22,0,0,1,1.1,2.66c.13.37.27.73.39,1.06l1.49,4c.17.49.35,1,.53,1.48.32.86.62,1.66.83,2.45l1.09,4.19c.18.74.37,1.48.57,2.23a44.84,44.84,0,0,1,1.28,6l.21,1.34c.37,2.37.73,4.73,1,7.09l.44,8.52c.13,2.06.12,3.66.12,5.36q0,1.08,0,2.16v197.84c0,.73,0,1.44,0,2.16,0,1.7,0,3.3-.12,5.36l-.44,8.52c-.32,2.36-.68,4.73-1,7.09l-.21,3.42a44.65,44.65,0,0,1-1.28,6.05c-.2.74-.39,1.48-.57,2.23l-1.09,4.18c-.21.79-.51,1.6-.83,2.46-.18.49-.36,1-.53,1.48l-1.49,4c-.12.32-.26.69-.39,1.06a22,22,0,0,1-1.1,2.66l-4,8.26a111,111,0,0,1-8.84,13.68,109,109,0,0,1-50.41,37.21l-.15.06a76.63,76.63,0,0,1-10.32,3.1c-1.13.28-2.25.56-3.35.86a20.72,20.72,0,0,1-2.42.48l-4.13.64c-.73.09-1.49.22-2.26.34a39.68,39.68,0,0,1-4.09.51l-6.92.36c-1.82.09-3.71.18-5.06.15h10.79v-.11H1380.55c-1.47,0-3.14,0-4.77.14l-6.55.33a36.64,36.64,0,0,0-4.16.52c-.67.1-1.35.21-2,.3l-3.79.58a20.91,20.91,0,0,0-2.81.57c-1,.27-2.07.54-3.16.81a69.47,69.47,0,0,0-9.64,2.93,104.93,104.93,0,0,0-55.83,47.53l-.65,1.12a1.86,1.86,0,0,0-.1.2l-3.42,7.09a23.36,23.36,0,0,0-1.22,2.92c-.11.31-.22.63-.34.94l-1.37,3.73c-.16.48-.31.88-.47,1.29a26.49,26.49,0,0,0-.9,2.69l-1,3.82c-.18.72-.36,1.4-.53,2.08a39.8,39.8,0,0,0-1.26,6l-1.14,7.63a1.24,1.24,0,0,0,0,.27l-.4,7.77c-.13,1.93-.12,3.73-.12,5.47,0,.69,0,1.38,0,2.08v140.16h5.47V1493.38c0-.69,0-1.41,0-2.12,0-1.72,0-3.34.11-5.12l.39-7.69,1.15-7.61a35.63,35.63,0,0,1,1.12-5.29c.18-.71.37-1.43.54-2.14l1-3.78a22.31,22.31,0,0,1,.72-2.13c.18-.47.35-.93.51-1.39l1.33-3.65c.12-.3.24-.65.37-1a17.87,17.87,0,0,1,1-2.31l3.42-7.09.6-1a98.52,98.52,0,0,1,52.93-45.14l.18-.06a62.59,62.59,0,0,1,8.95-2.71c1.13-.28,2.24-.56,3.34-.86a15.6,15.6,0,0,1,2.12-.41l3.75-.58c.68-.09,1.41-.21,2.13-.33a32.1,32.1,0,0,1,3.55-.44l6.57-.34c1.59-.08,3.1-.16,4.43-.13h189.72v.11h329.24c1.48,0,3.47-.06,5.39-.15l6.93-.37a44.32,44.32,0,0,0,4.68-.57q1.07-.18,2.16-.33l4.2-.65a23,23,0,0,0,3-.61c1-.27,2.11-.54,3.22-.82a79.4,79.4,0,0,0,11-3.32,114.5,114.5,0,0,0,52.9-39,115.08,115.08,0,0,0,9.26-14.29l.29-.51a1.74,1.74,0,0,0,.1-.19l3.79-7.85a27.83,27.83,0,0,0,1.35-3.25c.12-.34.24-.67.38-1l1.51-4.15c.18-.5.34-.95.51-1.4.35-.94.71-1.92,1-3l1.1-4.24c.19-.75.37-1.46.56-2.18a48.3,48.3,0,0,0,1.41-6.69l.2-1.23c.37-2.44.75-7,1.08-9.4,0-.08,0-.15,0-.22l.45-8.61c.13-2.21.13-4,.12-5.69,0-.7,0-1.39,0-2.11v-33.19h0V1070.44c0-.72,0-1.41,0-2.11,0-1.71,0-3.48-.12-5.69l-.45-8.61,0-.23c-.32-2.43-.7-4.86-1.07-7.3l-.2-1.23a48.75,48.75,0,0,0-1.41-6.7c-.19-.71-.37-1.42-.56-2.18l-1.1-4.23c-.28-1.06-.64-2-1-3-.17-.44-.33-.89-.51-1.4l-1.51-4.14c-.14-.34-.26-.68-.38-1a28.42,28.42,0,0,0-1.35-3.24l-3.79-7.85a1.14,1.14,0,0,0-.1-.19l-.29-.51a115.08,115.08,0,0,0-9.26-14.29,114.5,114.5,0,0,0-52.9-39,79.4,79.4,0,0,0-11-3.32c-1.11-.28-2.2-.55-3.22-.82a24.88,24.88,0,0,0-3-.62l-4.2-.64c-.73-.1-1.45-.22-2.16-.33a44.31,44.31,0,0,0-4.68-.58l-6.93-.36c-1.92-.09-3.91-.19-5.39-.15H1744.28v-5.47h155.17l13,.55c1.48.08,3,.32,4.61.57.81.13,1.63.26,2.39.36l4.48.7a22.09,22.09,0,0,1,2.76.55c1.08.28,2.18.56,3.29.83a88.8,88.8,0,0,1,11.9,3.58,119.81,119.81,0,0,1,55.45,40.92,123,123,0,0,1,10,15.54c1.39,2.81,2.76,5.65,4.14,8.58a26.36,26.36,0,0,1,1.25,3l2,5.57c.18.53.37,1,.56,1.57.36,1,.7,1.88.94,2.78l1.21,4.6c.18.77.38,1.54.58,2.31a51.89,51.89,0,0,1,1.45,6.8c.48,3,1,6.19,1.37,9.26l.6,11.63,0,182.61,0,26.23-.6,11.63c-.4,3.07-.89,8.3-1.37,11.35a51.89,51.89,0,0,1-1.45,6.8c-.2.77-.4,1.54-.58,2.31l-1.21,4.6c-.24.9-.58,1.81-.94,2.78-.19.52-.38,1-.56,1.57l-2,5.57a26.19,26.19,0,0,1-1.25,3c-1.38,2.93-2.75,5.78-4.14,8.59a123,123,0,0,1-10,15.54,120,120,0,0,1-55.45,40.92,88.73,88.73,0,0,1-11.9,3.57c-1.11.28-2.21.55-3.29.84a24.06,24.06,0,0,1-2.76.54l-4.48.71c-.76.1-1.58.23-2.39.35-1.61.26-3.13.49-4.61.58l-13,.55h10.85v-.11H1380.55c-1.47,0-2.88,0-4.26.12l-6.06.31a31,31,0,0,0-3.69.45c-.61.11-1.23.21-1.85.29l-3.42.51a17.13,17.13,0,0,0-2.54.52c-1,.27-2,.53-3.08.8a56.24,56.24,0,0,0-8.32,2.54,92.75,92.75,0,0,0-42.79,31.56,84,84,0,0,0-6.81,10.39l-.91,1.55a2.12,2.12,0,0,0-.11.21l-3,6.31a21,21,0,0,0-1.09,2.62l-.3.85-1.22,3.33c-.15.43-.29.79-.42,1.15a18.84,18.84,0,0,0-.82,2.44l-.87,3.39c-.16.68-.33,1.31-.5,1.94a33.13,33.13,0,0,0-1.1,5.3l-1,6.77a2.45,2.45,0,0,0,0,.27l-.35,6.94c-.13,1.63-.12,3.46-.12,5.23,0,.69,0,1.38,0,2.06v140.16h5.47V1493.38c0-.67,0-1.38,0-2.1,0-1.66,0-3.37.11-4.86l.34-6.88,1-6.77a29,29,0,0,1,1-4.57c.18-.68.36-1.36.52-2l.86-3.36a17.39,17.39,0,0,1,.63-1.83c.16-.42.32-.85.46-1.27l1.19-3.24c.11-.29.22-.61.34-.93a14,14,0,0,1,.8-2l3-6.34.87-1.47a76.25,76.25,0,0,1,6.4-9.77,87.11,87.11,0,0,1,40.31-29.78l.19-.08a52.78,52.78,0,0,1,7.63-2.32c1.11-.27,2.21-.55,3.29-.85a11.12,11.12,0,0,1,1.79-.35l3.39-.52c.62-.07,1.31-.19,2-.3a25.33,25.33,0,0,1,3-.39l6.11-.31c1.33-.07,2.58-.14,3.9-.11h189.72v.11h290.24l45.28-.19,7-.37c1.75-.1,3.48-.37,5.16-.63.77-.12,1.54-.25,2.33-.35l4.54-.71a29.9,29.9,0,0,0,3.34-.67c1-.27,2.1-.54,3.19-.81a93.27,93.27,0,0,0,12.47-3.76,125.31,125.31,0,0,0,57.88-42.69,131.4,131.4,0,0,0,10.47-16.24,1.09,1.09,0,0,1,.08-.15q2.13-4.3,4.18-8.67a29.37,29.37,0,0,0,1.47-3.54l2.08-5.64c.18-.54.36-1,.54-1.5.38-1,.78-2.12,1.09-3.27l1.22-4.66c.19-.79.39-1.53.58-2.28a56,56,0,0,0,1.57-7.42c.47-3,1-8.32,1.39-11.49a1.49,1.49,0,0,0,0-.21L2027,1272V1066.82l-.63-13.88c0-.06,0-.13,0-.19-.42-3.18-.93-6.4-1.4-9.42a56.51,56.51,0,0,0-1.57-7.43c-.19-.74-.39-1.48-.58-2.28l-1.22-4.65c-.31-1.15-.71-2.23-1.09-3.27-.18-.48-.36-1-.54-1.51l-2.08-5.63a29.51,29.51,0,0,0-1.47-3.55q-2.06-4.37-4.19-8.68c0-.05,0-.09-.07-.14A132.05,132.05,0,0,0,2001.68,990a125.43,125.43,0,0,0-57.88-42.7,91.75,91.75,0,0,0-12.47-3.75l-3.19-.81a27.8,27.8,0,0,0-3.34-.67l-4.54-.71-2.33-.35c-1.68-.26-3.41-.53-5.16-.63l-7-.38-45.28-.18H1744.28V920H1744l-.39-8.66a1.49,1.49,0,0,0,0-.21c-.41-3.17-.92-6.39-1.39-9.4a56,56,0,0,0-1.57-7.42c-.2-.75-.39-1.49-.58-2.29l-1.22-4.65c-.31-1.15-.71-2.23-1.09-3.27-.18-.49-.36-1-.54-1.51l-2.08-5.63a29.51,29.51,0,0,0-1.47-3.55q-2.06-4.35-4.18-8.66l-.08-.16A131.3,131.3,0,0,0,1719,848.35a125.43,125.43,0,0,0-57.88-42.7,91.75,91.75,0,0,0-12.47-3.75l-3.19-.81a27.8,27.8,0,0,0-3.34-.67l-4.54-.71-2.33-.35c-1.68-.26-3.41-.53-5.16-.63l-7-.38-17.34-.07V798H1404.94c-1.66,0-3.37,0-4.86-.11l-6.88-.34-6.77-1a29.39,29.39,0,0,1-4.58-1c-.67-.18-1.35-.36-2-.52l-3.36-.86a16.64,16.64,0,0,1-1.83-.63c-.43-.16-.85-.32-1.28-.46l-3.24-1.19-.93-.34a12.74,12.74,0,0,1-2-.8l-6.34-3-1.47-.87a77.08,77.08,0,0,1-9.78-6.4,87.2,87.2,0,0,1-29.78-40.3,1.18,1.18,0,0,0-.07-.2,52.78,52.78,0,0,1-2.32-7.63c-.28-1.11-.55-2.21-.85-3.29a11.12,11.12,0,0,1-.35-1.79l-.52-3.39c-.08-.62-.19-1.31-.3-2a25.33,25.33,0,0,1-.39-3l-.31-6.11c-.07-1.33-.14-2.58-.11-3.9V669.76h0V553h-5.47V708.76c0,1.47,0,2.89.12,4.26l.3,6.06a31,31,0,0,0,.46,3.69c.1.61.21,1.23.29,1.85l.51,3.42a15.94,15.94,0,0,0,.52,2.54c.27,1,.53,2,.79,3.08a57.15,57.15,0,0,0,2.55,8.32,92.75,92.75,0,0,0,31.56,42.79,82.77,82.77,0,0,0,10.38,6.81l1.56.92.2.11,6.32,3a19.62,19.62,0,0,0,2.62,1.09l.85.31,3.33,1.21,1.14.42a19.53,19.53,0,0,0,2.45.82l3.39.87c.68.16,1.31.33,1.94.5a33.23,33.23,0,0,0,5.29,1.1l6.77,1,.28,0,6.94.34c.17,0,.35,0,.53,0v.25h216.47l13,.55c1.48.08,3,.32,4.61.57.81.13,1.63.26,2.39.36l4.48.7a24.06,24.06,0,0,1,2.76.55c1.08.28,2.18.56,3.29.83a88.8,88.8,0,0,1,11.9,3.58,119.81,119.81,0,0,1,55.45,40.92,123,123,0,0,1,10,15.54c1.39,2.81,2.76,5.65,4.14,8.58a26.36,26.36,0,0,1,1.25,3l2,5.57c.18.53.37,1.05.56,1.57.36,1,.7,1.88.94,2.78l1.21,4.6c.19.77.38,1.54.58,2.31a51.89,51.89,0,0,1,1.45,6.8c.48,3,1,6.19,1.37,9.26l.6,11.63v16.43h-5.46V920h-.18l-.39-7.56c0-.08,0-.15,0-.23-.33-2.43-.71-4.87-1.08-7.31l-.2-1.23a48.75,48.75,0,0,0-1.41-6.7c-.19-.71-.37-1.42-.56-2.18l-1.1-4.23c-.28-1.06-.64-2-1-3-.17-.44-.33-.89-.51-1.4l-1.52-4.14c-.13-.34-.25-.68-.37-1a28.42,28.42,0,0,0-1.35-3.24l-3.79-7.85a1.14,1.14,0,0,0-.1-.19l-.29-.51a115.08,115.08,0,0,0-9.26-14.29,114.5,114.5,0,0,0-52.9-39,79.4,79.4,0,0,0-11-3.32c-1.11-.28-2.2-.55-3.22-.82a23,23,0,0,0-3-.61l-4.2-.65c-.73-.1-1.45-.22-2.16-.33a44,44,0,0,0-4.54-.56V809H1404.92c-1.72,0-3.34,0-5.12-.11l-7.69-.39-7.61-1.14a36.66,36.66,0,0,1-5.29-1.12c-.71-.19-1.43-.38-2.15-.55l-3.77-1a20.73,20.73,0,0,1-2.14-.72c-.46-.17-.92-.35-1.39-.51l-3.64-1.33-1-.37a17.87,17.87,0,0,1-2.31-1l-7.09-3.42-1-.6a98.52,98.52,0,0,1-45.14-52.93l-.06-.17a63.11,63.11,0,0,1-2.71-9c-.28-1.13-.56-2.24-.86-3.34a15.59,15.59,0,0,1-.42-2.12l-.57-3.75c-.09-.68-.21-1.4-.33-2.13a32.1,32.1,0,0,1-.44-3.55l-.34-6.57c-.08-1.59-.16-3.1-.13-4.43V669.76h0V553h-5.47V669.76h0v39c0,1.47,0,3.15.14,4.77l.33,6.56a36.76,36.76,0,0,0,.51,4.15c.11.68.22,1.35.31,2l.58,3.8a20.79,20.79,0,0,0,.57,2.8c.27,1,.54,2.07.81,3.16a66.47,66.47,0,0,0,2.93,9.64,104.79,104.79,0,0,0,47.53,55.83l1.12.65.2.11,7.08,3.41a22.64,22.64,0,0,0,2.93,1.22l.94.34,3.73,1.37c.47.16.88.31,1.29.47a26.49,26.49,0,0,0,2.69.9l3.82,1,2.08.54a41,41,0,0,0,6,1.25l7.64,1.15.27,0,7.77.4.79,0v.24h216.53c1.35,0,3.24.06,5.07.15l6.91.36a37.11,37.11,0,0,1,4.09.51l2.25.34,4.14.64a18.35,18.35,0,0,1,2.41.48l3.36.86a75.21,75.21,0,0,1,10.32,3.1l.15.06a109,109,0,0,1,50.41,37.21,110.91,110.91,0,0,1,8.84,13.67l4,8.27a22,22,0,0,1,1.1,2.66c.13.37.26.73.39,1.06l1.49,4c.17.49.35,1,.53,1.48.32.86.62,1.66.83,2.45l1.09,4.19c.18.74.37,1.48.57,2.23a44.84,44.84,0,0,1,1.28,6l.21,1.34c.36,2.37.73,4.73,1,7.09l.44,8.52c.13,2.06.12,3.66.12,5.36q0,1.08,0,2.16V939.8h-5.47V920h-.19l-.33-6.47a1.24,1.24,0,0,0,0-.27l-1.14-7.64a39.67,39.67,0,0,0-1.26-6c-.17-.68-.35-1.36-.53-2.08l-1-3.82a26.49,26.49,0,0,0-.9-2.69c-.16-.41-.31-.82-.47-1.29L1715.2,886l-.35-.93a22.59,22.59,0,0,0-1.21-2.93l-3.42-7.08a1.24,1.24,0,0,0-.1-.2l-.66-1.12a103.95,103.95,0,0,0-55.82-47.53,66.85,66.85,0,0,0-9.64-2.93c-1.09-.27-2.17-.54-3.16-.81a20.91,20.91,0,0,0-2.81-.57l-3.79-.58c-.68-.09-1.36-.2-2-.31a36.66,36.66,0,0,0-4.16-.51l-6.55-.34c-1.63-.08-3.3-.16-4.77-.13h-15.2v-.15H1404.88c-1.7,0-3.3,0-5.36-.11l-8.52-.45c-2.36-.32-4.72-.68-7.09-1.05l-1.33-.2a44.7,44.7,0,0,1-6-1.29c-.74-.19-1.48-.39-2.23-.57l-4.18-1.09c-.79-.21-1.6-.51-2.46-.83l-1.48-.53-4-1.49-1.06-.39a22,22,0,0,1-2.66-1.1l-8.27-4a111.73,111.73,0,0,1-13.67-8.85,109,109,0,0,1-37.21-50.4l-.06-.16a74.79,74.79,0,0,1-3.1-10.32c-.28-1.13-.56-2.25-.86-3.35a18.5,18.5,0,0,1-.48-2.42l-.64-4.13c-.09-.72-.22-1.49-.34-2.25a40.21,40.21,0,0,1-.51-4.1l-.36-6.91c-.09-1.83-.18-3.72-.15-5.07V553h-5.47V669.76h0v39c0,1.48.06,3.47.16,5.4l.36,6.92a44,44,0,0,0,.57,4.68c.11.72.23,1.44.33,2.16l.65,4.2a23,23,0,0,0,.61,3c.27,1,.54,2.12.82,3.22a79.53,79.53,0,0,0,3.32,11,114.54,114.54,0,0,0,39,52.89,115.08,115.08,0,0,0,14.29,9.26l.51.29.19.1,7.85,3.79a26.21,26.21,0,0,0,3.25,1.35l1,.38,4.14,1.52c.51.17,1,.34,1.41.5a29.53,29.53,0,0,0,3,1l4.24,1.11c.75.18,1.46.37,2.17.55a50.29,50.29,0,0,0,6.7,1.42l1.23.19c2.45.37,4.88.75,7.32,1.08l.22,0,8.6.45,1,0v.22h216.53c1.33,0,2.83.05,4.43.13l6.56.33a32.08,32.08,0,0,1,3.56.45c.72.12,1.45.24,2.13.32l3.75.58a15.59,15.59,0,0,1,2.12.42c1.1.3,2.21.57,3.34.86a62.59,62.59,0,0,1,9,2.71l.18.06a99.3,99.3,0,0,1,52.93,45.14l.6,1,3.42,7.08a18.64,18.64,0,0,1,1,2.32c.12.34.25.69.37,1l1.33,3.64c.16.47.33.93.51,1.39.28.75.54,1.46.72,2.14l1,3.77c.17.72.36,1.43.54,2.15a35.36,35.36,0,0,1,1.12,5.29l1.14,7.61.4,7.69c.12,1.77.11,3.4.1,5.12,0,.71,0,1.42,0,2.12V939.8h-5.47V920h-.2l-.27-5.38a2.46,2.46,0,0,0,0-.28l-1-6.77a33.59,33.59,0,0,0-1.1-5.3c-.17-.63-.34-1.26-.5-1.93l-.87-3.4a19.93,19.93,0,0,0-.82-2.44c-.13-.36-.27-.72-.42-1.14L1705,890c-.1-.28-.2-.57-.31-.85a17.47,17.47,0,0,0-1.09-2.62l-3-6.32a2,2,0,0,0-.11-.2l-.91-1.56a83.89,83.89,0,0,0-6.81-10.38A92.68,92.68,0,0,0,1650,836.52a58.46,58.46,0,0,0-8.33-2.54c-1.06-.26-2.11-.52-3.07-.79a15.94,15.94,0,0,0-2.54-.52l-3.42-.52c-.62-.07-1.24-.18-1.85-.28a31,31,0,0,0-3.69-.46l-6.06-.3c-1.2-.07-2.44-.12-3.71-.12v-.15l-215.74,0-11.63-.59c-3.07-.41-6.21-.9-9.26-1.38a51.84,51.84,0,0,1-6.8-1.44l-2.31-.59-4.6-1.21c-.9-.24-1.81-.58-2.78-.93-.52-.2-1-.39-1.57-.57l-5.57-2.05a26.19,26.19,0,0,1-3-1.24c-2.94-1.39-5.78-2.76-8.59-4.15a124,124,0,0,1-15.54-10A120.09,120.09,0,0,1,1289,751.21a90.61,90.61,0,0,1-3.58-11.89c-.27-1.11-.54-2.21-.83-3.3a26.42,26.42,0,0,1-.55-2.76l-.7-4.48c-.1-.76-.23-1.58-.35-2.39a44.33,44.33,0,0,1-.58-4.61l-.55-13v-39h0V553h-5.47V669.76h0l.19,45.28.37,7c.1,1.76.37,3.49.63,5.16.12.77.24,1.55.35,2.33l.71,4.54a27,27,0,0,0,.67,3.34c.27,1,.54,2.1.81,3.19a92,92,0,0,0,3.76,12.48A125.35,125.35,0,0,0,1326.53,811a131.4,131.4,0,0,0,16.24,10.47l.15.08q4.3,2.13,8.67,4.18a30.41,30.41,0,0,0,3.54,1.48l5.64,2.07c.54.18,1,.36,1.5.54,1,.38,2.12.78,3.27,1.09l4.66,1.22,2.28.58a56,56,0,0,0,7.42,1.57c3,.48,6.23,1,9.41,1.4h.21l10.74.49v.29h216.53c1.31,0,2.57,0,3.9.11l6.11.31a25.59,25.59,0,0,1,3,.39c.68.11,1.36.22,2,.3l3.39.51a12.32,12.32,0,0,1,1.79.36c1.08.3,2.18.57,3.29.85a51.56,51.56,0,0,1,7.63,2.32l.19.07a87.29,87.29,0,0,1,40.31,29.78,78.57,78.57,0,0,1,6.4,9.78l.86,1.47,3.06,6.34a13.36,13.36,0,0,1,.8,2c.12.33.23.65.34.93l1.19,3.24c.14.43.3.85.46,1.27a17.52,17.52,0,0,1,.63,1.84l.86,3.36c.16.68.34,1.36.52,2a29.15,29.15,0,0,1,1,4.58l1,6.77.34,6.88c.12,1.48.11,3.2.11,4.86,0,.71,0,1.42,0,2.1V939.8l-88.39,0h-.44c-2.08,0-4.24.09-6.52.3l-3.76.31-3.74.47c-1.91.2-3.84.56-5.72.91l-2.47.44-.16,0-2.15.48c-2.11.48-4.28,1-6.43,1.62a124.47,124.47,0,0,0-89.7,103.25,126.89,126.89,0,0,0-.53,28.7,124.56,124.56,0,0,0,91,107.9,124.29,124.29,0,0,0,107.2-20.18,123.19,123.19,0,0,0,13.59-11.76,126.18,126.18,0,0,0,19-24.25,123.2,123.2,0,0,0,17.29-55.33c.18-1.86.21-3.63.25-5.34,0-.77,0-1.53.06-2.37v-29.5h0V978.08h155.23c1.31,0,2.57,0,3.9.11l6.11.31a25.33,25.33,0,0,1,3,.39c.68.11,1.36.22,2,.3l3.39.51a12.32,12.32,0,0,1,1.79.36c1.08.3,2.18.57,3.29.85a51.56,51.56,0,0,1,7.63,2.32l.19.07a87.29,87.29,0,0,1,40.31,29.78,78.57,78.57,0,0,1,6.4,9.78l.86,1.47,3.06,6.34a13.36,13.36,0,0,1,.8,1.95c.12.32.23.65.34.93l1.19,3.24c.14.43.3.85.46,1.27a17.52,17.52,0,0,1,.63,1.84l.86,3.36c.16.68.34,1.36.52,2a28.91,28.91,0,0,1,1,4.58l1,6.77.34,6.88c.12,1.48.11,3.2.11,4.86,0,.71,0,1.42,0,2.1v197.84c0,.68,0,1.39,0,2.1,0,1.66,0,3.38-.11,4.86l-.34,6.89-1,6.77a60.34,60.34,0,0,1-1,6.66c-.18.67-.36,1.35-.52,2l-.86,3.36a16.64,16.64,0,0,1-.63,1.83c-.16.43-.32.85-.46,1.28l-1.19,3.24c-.11.28-.22.6-.34.93a13.83,13.83,0,0,1-.8,2l-3.06,6.34-.86,1.47a78.44,78.44,0,0,1-6.4,9.77,87.22,87.22,0,0,1-40.31,29.79l-.19.07A52.78,52.78,0,0,1,1923,1360c-1.11.27-2.21.55-3.29.85a12.33,12.33,0,0,1-1.79.35l-3.39.52c-.63.07-1.31.19-2,.3a25.33,25.33,0,0,1-3,.39l-6.11.31c-1.33.07-2.59.14-3.9.11h10.79v-.11H1419.55l-45.28.19-7,.37c-1.75.1-3.48.37-5.16.63-.77.12-1.54.25-2.33.35l-4.54.71a29.46,29.46,0,0,0-3.34.67c-1,.27-2.1.54-3.19.81a93.84,93.84,0,0,0-12.48,3.76,125.54,125.54,0,0,0-57.87,42.69,131.4,131.4,0,0,0-10.47,16.24l-.08.15c-1.42,2.87-2.81,5.77-4.18,8.67a31.15,31.15,0,0,0-1.48,3.54l-2.07,5.64c-.18.54-.36,1-.54,1.5-.38,1-.78,2.12-1.09,3.28l-1.22,4.65c-.19.79-.39,1.53-.58,2.28a56,56,0,0,0-1.57,7.42c-.47,3-1,6.23-1.39,9.41a1.49,1.49,0,0,0,0,.21l-.63,13.87v143.79Z"/></g></g></svg>